<svg width="24" height="25" viewBox="0 0 24 25" fill="none" xmlns="http://www.w3.org/2000/svg">
<path d="M12 2.66398C15.204 2.66398 15.584 2.67598 16.85 2.73398C20.102 2.88198 21.621 4.42498 21.769 7.65298C21.827 8.91798 21.838 9.29798 21.838 12.502C21.838 15.707 21.826 16.086 21.769 17.351C21.62 20.576 20.105 22.122 16.85 22.27C15.584 22.328 15.206 22.34 12 22.34C8.796 22.34 8.416 22.328 7.151 22.27C3.891 22.121 2.38 20.571 2.232 17.35C2.174 16.085 2.162 15.706 2.162 12.501C2.162 9.29698 2.175 8.91798 2.232 7.65198C2.381 4.42498 3.896 2.88098 7.151 2.73298C8.417 2.67598 8.796 2.66398 12 2.66398ZM12 0.500977C8.741 0.500977 8.333 0.514977 7.053 0.572977C2.695 0.772977 0.273 3.19098 0.073 7.55298C0.014 8.83398 0 9.24198 0 12.501C0 15.76 0.014 16.169 0.072 17.449C0.272 21.807 2.69 24.229 7.052 24.429C8.333 24.487 8.741 24.501 12 24.501C15.259 24.501 15.668 24.487 16.948 24.429C21.302 24.229 23.73 21.811 23.927 17.449C23.986 16.169 24 15.76 24 12.501C24 9.24198 23.986 8.83398 23.928 7.55398C23.732 3.19998 21.311 0.773977 16.949 0.573977C15.668 0.514977 15.259 0.500977 12 0.500977ZM12 6.33898C8.597 6.33898 5.838 9.09798 5.838 12.501C5.838 15.904 8.597 18.664 12 18.664C15.403 18.664 18.162 15.905 18.162 12.501C18.162 9.09798 15.403 6.33898 12 6.33898ZM12 16.501C9.791 16.501 8 14.711 8 12.501C8 10.292 9.791 8.50098 12 8.50098C14.209 8.50098 16 10.292 16 12.501C16 14.711 14.209 16.501 12 16.501ZM18.406 4.65598C17.61 4.65598 16.965 5.30098 16.965 6.09598C16.965 6.89098 17.61 7.53598 18.406 7.53598C19.201 7.53598 19.845 6.89098 19.845 6.09598C19.845 5.30098 19.201 4.65598 18.406 4.65598Z" fill="white"/>
</svg>
