<svg width="24" height="25" viewBox="0 0 24 25" fill="none" xmlns="http://www.w3.org/2000/svg">
<path d="M19 0.500977H5C2.239 0.500977 0 2.73998 0 5.50098V19.501C0 22.262 2.239 24.501 5 24.501H19C21.762 24.501 24 22.262 24 19.501V5.50098C24 2.73998 21.762 0.500977 19 0.500977ZM8 19.501H5V8.50098H8V19.501ZM6.5 7.23298C5.534 7.23298 4.75 6.44298 4.75 5.46898C4.75 4.49498 5.534 3.70498 6.5 3.70498C7.466 3.70498 8.25 4.49498 8.25 5.46898C8.25 6.44298 7.467 7.23298 6.5 7.23298ZM20 19.501H17V13.897C17 10.529 13 10.784 13 13.897V19.501H10V8.50098H13V10.266C14.396 7.67998 20 7.48898 20 12.742V19.501Z" fill="white"/>
</svg>
