<svg width="104" height="104" viewBox="0 0 104 104" fill="none" xmlns="http://www.w3.org/2000/svg">
<path d="M67.9812 49.4903L75.1592 56.1023L41.466 84.8391C30.4226 94.2579 16.6616 100.242 2 102L6.47076 94.1358C11.1156 85.9649 13.4381 81.8795 16.1057 78.016C18.4761 74.5828 21.0491 71.2831 23.8123 68.1323C26.9219 64.5858 30.3509 61.2946 37.209 54.7129L52.6487 39.894M49.8349 37.1922L83.3176 5.07473C86.8073 1.72727 92.2003 1.0347 96.4846 3.3838C102.75 6.81895 103.896 15.03 98.7936 19.9259L96.7778 21.8602C95.547 23.0408 93.8784 23.704 92.1384 23.704H86.4145L75.1592 34.5034V35.4458C75.1592 38.0872 75.1592 39.408 74.848 40.6509C74.5723 41.7528 74.1176 42.806 73.5008 43.7725C72.8046 44.8622 71.8311 45.7963 69.8845 47.6641L65.3114 52.0519L49.8349 37.1922Z" stroke="white" stroke-width="4" stroke-linecap="round" stroke-linejoin="round"/>
</svg>
