<svg width="104" height="104" viewBox="0 0 104 104" fill="none" xmlns="http://www.w3.org/2000/svg">
<path d="M101.11 27.9245V27.9057C96.5514 20.0586 89.8505 13.5144 81.7075 8.95744C73.5646 4.40028 64.2784 1.99746 54.8194 2C40.8147 1.99834 27.3829 7.26317 17.4779 16.6367C7.57261 26.0102 2.00524 38.7249 2 51.9843C2.00117 65.2493 7.56733 77.9707 17.4743 87.3503C27.3814 96.7298 40.8178 102 54.8282 102C63.4701 102.011 71.9822 100.007 79.6128 96.1663C79.6385 96.1444 79.6674 96.1262 79.6986 96.1121C80.5788 95.5245 89.2819 89.495 84.9799 80.5757C80.482 71.1438 76.4638 66.9394 77.4541 59.1431C78.4157 51.3468 107.39 47.9716 101.11 27.9245ZM101.11 27.9245C107.39 47.9632 78.4157 51.3384 77.4541 59.1348C76.4924 66.9311 80.482 71.1355 84.9799 80.5674C89.2819 89.4867 80.5788 95.5141 79.6986 96.1037C79.6674 96.1177 79.6385 96.136 79.6128 96.1579M54.8062 40.015C60.3176 40.015 64.7856 35.7847 64.7856 30.5665C64.7856 25.3483 60.3176 21.118 54.8062 21.118C49.2947 21.118 44.8268 25.3483 44.8268 30.5665C44.8268 35.7847 49.2947 40.015 54.8062 40.015ZM32.1693 57.518C35.39 57.518 38.0007 55.046 38.0007 51.9968C38.0007 48.9475 35.39 46.4756 32.1693 46.4756C28.9486 46.4756 26.3379 48.9475 26.3379 51.9968C26.3379 55.046 28.9486 57.518 32.1693 57.518ZM40.4675 76.6442C42.3428 76.6442 43.8629 75.2049 43.8629 73.4294C43.8629 71.6539 42.3428 70.2146 40.4675 70.2146C38.5922 70.2146 37.0721 71.6539 37.0721 73.4294C37.0721 75.2049 38.5922 76.6442 40.4675 76.6442Z" stroke="white" stroke-width="4" stroke-linecap="round" stroke-linejoin="round"/>
</svg>
