<svg width="104" height="104" viewBox="0 0 104 104" fill="none" xmlns="http://www.w3.org/2000/svg">
<path d="M51.9305 35.9225L21.8694 6.11523C19.6501 3.91469 18.5405 2.81443 17.2609 2.40218C16.1354 2.03956 14.923 2.03956 13.7975 2.40218C12.518 2.81443 11.4083 3.91469 9.18903 6.11517L6.01897 9.2585C3.79969 11.459 2.69005 12.5592 2.27429 13.828C1.90857 14.944 1.90857 16.1462 2.27429 17.2622C2.69005 18.5309 3.79969 19.6312 6.01897 21.8317L36.0803 51.6392M67.7813 51.6392L97.841 81.4449C100.06 83.6454 101.17 84.7456 101.586 86.0147C101.952 87.1305 101.952 88.3329 101.586 89.4487C101.17 90.7173 100.06 91.8175 97.841 94.0185L94.6708 97.1613C92.4517 99.3623 91.3421 100.462 90.0627 100.875C88.9369 101.237 87.7247 101.237 86.5989 100.875C85.3195 100.462 84.2099 99.3623 81.9907 97.1613L51.9305 67.3556M30.1307 24.1955L35.1138 19.2477M80.5662 74.2063L85.5778 69.2854M72.158 15.8736L88.0083 31.5901M2.10947 102L2.37538 100.154C3.31635 93.6228 3.78685 90.3578 4.85705 87.3088C5.80669 84.6033 7.10396 82.0306 8.71689 79.6541C10.5345 76.9763 12.887 74.6436 17.5918 69.9783L82.8666 5.25501C87.2439 0.915007 94.3402 0.915007 98.7175 5.25495C103.094 9.59495 103.094 16.6315 98.7175 20.9715L32.2445 86.8827C27.9762 91.1146 25.8421 93.2311 23.4113 94.9136C21.2537 96.4073 18.9266 97.6447 16.4779 98.6005C13.7193 99.6773 10.7606 100.269 4.84382 101.453L2.10947 102Z" stroke="white" stroke-width="4" stroke-linecap="round" stroke-linejoin="round"/>
</svg>
