<svg width="17" height="17" viewBox="0 0 17 17" fill="none" xmlns="http://www.w3.org/2000/svg">
<g clip-path="url(#clip0_54690_825)">
<path d="M1.16699 1.16699H3.83366L5.62033 10.0937C5.68129 10.4006 5.84826 10.6763 6.09202 10.8725C6.33578 11.0688 6.64079 11.173 6.95366 11.167H13.4337C13.7465 11.173 14.0515 11.0688 14.2953 10.8725C14.5391 10.6763 14.706 10.4006 14.767 10.0937L15.8337 4.50033H4.50033M7.16699 14.5003C7.16699 14.8685 6.86852 15.167 6.50033 15.167C6.13214 15.167 5.83366 14.8685 5.83366 14.5003C5.83366 14.1321 6.13214 13.8337 6.50033 13.8337C6.86852 13.8337 7.16699 14.1321 7.16699 14.5003ZM14.5003 14.5003C14.5003 14.8685 14.2018 15.167 13.8337 15.167C13.4655 15.167 13.167 14.8685 13.167 14.5003C13.167 14.1321 13.4655 13.8337 13.8337 13.8337C14.2018 13.8337 14.5003 14.1321 14.5003 14.5003Z" stroke="white" stroke-width="1.6" stroke-linecap="round" stroke-linejoin="round"/>
</g>
<defs>
<clipPath id="clip0_54690_825">
<rect width="16" height="16" fill="white" transform="translate(0.5 0.5)"/>
</clipPath>
</defs>
</svg>
