<svg width="493" height="359" viewBox="0 0 493 359" fill="none" xmlns="http://www.w3.org/2000/svg">
<path d="M309.161 49.1364C234.288 -23.9806 111.032 13.2229 52.4913 88.1321C40.5346 103.435 29.3656 125.09 22.3086 143.226C-7.75478 220.498 16.7151 312.083 99.104 341.76C169.153 366.992 244.088 339.418 293.497 287.584C308.07 272.296 319.384 254.258 330.552 236.473C331.275 235.32 333.111 232.231 333.805 231.414C334.661 230.402 340.287 229.73 341.909 229.401C340.887 231.75 339.77 234.066 338.849 236.458C316.706 293.918 256.008 339.577 196.723 353.052C133.854 367.339 78.0632 352.903 35.6637 304.018C-14.3384 246.366 -8.76292 157.376 33.7486 97.2126C66.9629 50.2204 107.986 17.0387 165.28 4.35565C244.355 -13.1512 322.726 22.7659 350.227 100.4C354.813 113.346 358.636 126.615 358.535 140.519C358.52 140.996 358.365 141.184 357.92 141.35C356.049 142.048 353.1 141.646 351.102 142.398C350.061 142.203 350.296 138.806 350.177 138.029C347.626 121.455 345.089 105.545 338 90.2243C330.697 74.4482 321.573 61.2521 309.165 49.1364H309.161Z" fill="white"/>
<path d="M258.726 79.348C258.993 79.5033 262.777 83.7671 262.73 84.0743C261.328 86.7084 258.079 89.816 257.028 92.4862C255.853 95.4781 256.012 98.7266 252.851 100.956C252.225 101.397 251.608 101.155 250.885 101.881C250.162 102.607 240.836 117.386 240.547 118.315C240.24 119.305 240.988 119.847 240.464 121.079C240.345 121.357 237.364 125.874 237.14 126.08C236.464 126.705 235.73 126.42 234.982 127.175C234.346 127.818 227.25 139.175 226.917 140.067C226.332 141.636 226.82 142.532 225.84 144.411C224.626 146.749 223.3 146.499 221.938 148.096C221.356 148.779 216.905 155.67 216.709 156.237C216.391 157.173 216.634 157.997 216.431 158.85C215.615 162.254 212.232 164.169 210.223 166.734C208.12 169.419 201.309 181.683 201.096 184.639C200.969 186.377 201.974 196.281 202.52 197.867C203.242 199.967 203.976 202.16 204.774 204.285C205.338 205.784 206.65 206.261 205.703 208.404L207.521 209.21C207.824 211.732 209.389 213.824 210.27 216.133C210.668 217.174 210.686 219.305 211.43 220.306C211.701 220.671 212.381 220.588 212.724 220.888C214.44 222.38 214.097 224.01 214.917 225.578C216.814 229.203 221.927 236.122 225.053 238.93C227.459 241.091 229.645 240.198 231.611 241.018C232.233 241.279 232.298 242.196 232.775 242.428C233.251 242.659 233.84 242.167 234.336 242.279C234.831 242.391 235.196 243.183 235.698 243.461C237.92 244.7 247.962 245.362 250.097 244.18C250.82 243.779 251.138 242.897 252.189 242.659C253.96 242.258 256.348 242.811 258.224 242.55C260.099 242.29 268.403 238.254 269.978 236.96C271.232 235.931 272.905 232.223 274.513 232.447C274.73 232.476 274.553 233.456 275.232 233.184L275.781 231.02C276.764 231.58 277.566 231.291 278.307 230.474C275.857 230.124 277.996 228.892 278.466 228.1C279.232 226.814 278.567 226.471 280.406 225.701C281.082 225.419 284.544 223.833 285.002 223.454C285.678 222.894 286.202 221.286 287.239 220.975L301.436 221.264C301.555 221.979 301.187 222.485 300.909 223.081C299.51 226.063 296.395 228.689 294.968 231.266C294.654 231.833 294.741 232.57 294.571 233.192C292.341 232.234 292.287 236.126 291.311 237.333C288.67 240.585 281.4 243.212 278.484 246.547C277.66 247.486 278.086 248.74 277.505 249.362C277.107 249.788 272.377 251.819 271.582 251.956C271.048 252.046 270.441 251.721 269.956 251.812C268.034 252.18 265.685 253.38 264.406 254.865L264.03 254.117C260.251 255.974 254.524 256.028 251.076 258.171C250.65 258.438 250.56 259.161 250.249 259.226L245.295 258.789L244.504 257.448C238.849 257.723 233.494 256.025 228.099 254.868L227.925 255.945C226.957 255.772 226.516 254.424 226.014 254.149C225.002 253.593 221.606 253.242 221.241 252.877C220.608 252.249 220.8 251.114 220.131 250.366C219.376 249.517 216.323 247.819 215.083 246.742C211.781 243.866 207.376 238.894 204.821 235.324C203.416 233.358 202.921 230.07 200.301 230.995L199.86 228.52L198.801 228.292C198.783 226.767 198.957 225.217 198.74 223.699C197.909 217.903 194.198 210.594 193.501 204.733C193.269 202.796 194.162 200.823 193.613 199.197C193.338 198.384 192.677 198.369 192.33 197.856C191.539 196.678 192.659 195.663 189.501 196.577L147.882 276.549L139.022 261.351C138.657 260.393 140.64 257.326 141.374 256.498C142.107 255.671 143.379 255.212 143.856 254.283C144.698 252.65 144.095 251.624 145.71 249.633C148.579 246.088 150.888 241.615 153.222 237.633C153.587 237.007 155.329 234.236 155.65 233.889C156.044 233.463 156.568 233.947 157.009 233.839C158.7 233.423 157.146 231.66 157.453 230.998C157.674 230.525 158.982 230.066 159.452 229.405C159.835 228.863 160.467 227.515 160.879 226.785C161.229 226.171 161.161 225.354 161.789 224.877L162.324 226.319C163.177 221.546 166.107 216.762 168.893 212.816C169.526 211.92 171.542 210.135 171.759 209.831C172.135 209.307 172.883 206.521 173.453 205.466C174.971 202.669 177.005 200.154 178.646 197.289C180.131 194.702 182.162 191.728 184.005 189.462L184.189 190.904C185.11 189.986 186.823 188.516 186.852 187.128C186.881 185.845 185.537 184.183 187.925 183.985C188.218 181.083 189.602 179.833 189.316 176.74C186.913 150.564 157.616 123.955 134.234 115.113C125.554 111.832 116.723 110.004 107.408 111.406L109.233 104.382L108.492 103.644C109.027 103.413 109.496 102.08 109.825 102.004C111.636 101.581 112.293 102.896 113.413 100.233C116.174 100.479 117.937 99.601 120.738 100.783C121.908 101.278 123.018 102.607 124.181 103.12C126.599 104.183 130.111 104.468 132.694 105.263C132.489 104.194 130.722 102.712 132.33 102.015L133.399 104.725C135.769 103.915 135.629 106.058 136.004 106.297C136.286 106.474 137.143 106.282 137.735 106.546C138.938 107.077 140.138 108.345 141.735 109.057C144.854 110.441 146.66 110.08 149.667 112.338C156.091 117.162 162.346 122.033 168.922 126.579C169.634 127.07 169.67 128.501 171.358 128.031L171 126.589C172.279 125.505 173.988 130.803 174.462 131.616C176.08 134.391 181.688 141.824 183.997 144.122C184.5 144.624 185.226 144.617 185.627 145.021C186.292 145.69 186.23 147.327 186.895 148.093L187.806 147.186C189.551 147.544 188.03 149.838 188.5 151.161C188.912 152.328 190.758 154.51 191.434 155.843C192.698 158.348 194.624 161.965 194.856 164.534L195.499 164.259C197.081 165.726 197.063 167.945 197.558 169.95C199.174 168.281 201.067 167.143 200.995 164.53L202.072 164.899L202.798 163.262L202.082 163.092C202.05 162.799 202.064 162.554 202.162 162.268C202.343 161.751 204.29 158.116 204.659 157.538C205.389 156.385 207.333 155.32 208.225 154.142C210.353 151.323 212.316 146.04 213.974 143.796C214.675 142.85 216.626 141.784 217.562 139.728C218.187 138.358 218.563 135.504 219.752 134.42C220.218 133.993 220.8 134.362 221.559 133.603C222.451 132.711 226.104 126.907 226.852 125.531C227.206 124.884 227.307 124.118 227.734 123.504L227.008 123.168C227.546 121.661 229.248 121.097 230.068 120.078C232.514 117.039 238.476 107.803 240.305 104.302C241.252 102.492 240.699 101.158 240.785 101.003C240.999 100.609 243.933 97.639 244.753 97.8196C248.439 92.7753 251.654 85.9966 255.564 81.2558C256.193 80.4934 257.656 78.7301 258.733 79.3443L258.726 79.348Z" fill="white"/>
<path d="M149.814 57.8125C160.257 69.65 187.147 76.1577 201.684 86.698C205.821 89.6971 208.904 93.4044 212.788 96.5372C216.582 94.6727 220.669 93.2418 224.43 91.3267C229.84 88.5733 237.905 83.9518 241.243 78.8714C242.4 77.1152 242.855 75.2796 243.823 73.4874C244.214 73.4007 248.727 76.4287 249.066 76.8876C250.042 78.2065 248.167 81.2164 247.361 82.4631C236.64 98.9835 201.659 104.765 185.792 121.705C184.705 122.864 182.938 124.845 182.902 126.431C182.891 126.864 183.845 129.947 182.743 129.484C181.529 127.808 177.51 126.265 176.426 124.96C176.022 124.472 175.884 123.685 175.79 123.067C175.306 119.905 175.527 113.863 175.678 110.503C175.856 106.55 176.705 102.698 176.777 98.7739C177.156 98.409 181.651 100.205 182.266 100.599C185.12 102.416 180.878 111.887 183.097 114.669C189.89 108.566 197.742 104.133 205.67 99.6845C205.709 99.2184 202.161 95.7062 201.525 95.1641C191.906 86.9834 179.4 82.5245 168.148 77.2309C158.515 72.6961 147.447 67.9661 141.745 58.5388L146.97 54.3184L149.807 57.8125H149.814Z" fill="white"/>
<path d="M381.185 169.72C381.383 169.858 383.667 171.693 383.747 171.841C384.231 172.734 383.136 174.54 385.629 174.667C384.321 176.925 385.676 177.753 385.972 179.556C386.587 183.314 387.01 192.98 389.279 195.762C389.929 196.56 390.952 196.232 391.259 196.672C391.902 197.594 391.219 202.089 394.937 200.033C395.736 199.592 395.768 198.924 396.285 198.494C396.654 198.187 397.243 198.132 397.72 197.76C400.014 195.982 401.264 194.429 402.923 191.762C403.656 190.584 403.389 188.936 405.362 188.748C407.877 188.513 409.192 190.349 409.427 192.633C409.55 193.85 407.675 195.202 407.161 196.358C405.514 200.091 406.363 197.941 404.057 200.481C401.727 203.047 400.842 205.077 397.21 206.642C395.667 207.307 391.346 208.25 389.857 207.498C387.898 206.508 385.496 203.953 384.484 201.999C381.102 195.462 380.245 187.567 379.024 180.354C378.955 179.943 378.908 178.71 378.229 178.992C375.255 181.659 373.47 184.409 371.479 187.784C371.125 188.38 370.471 188.759 370.142 189.337C369.441 190.573 369.174 192.575 368.296 193.634C367.598 194.476 366.493 194.526 366.084 195.036C365.727 195.487 365.777 196.286 365.405 196.886C364.831 197.811 361.723 201.113 360.704 202.302C359.905 203.234 358.529 204.051 357.914 204.748C357.185 205.583 356.184 207.787 355.436 208.597C354.937 209.135 352.874 210.024 352.166 210.049C350.308 210.107 347.996 207.101 347.703 205.529C347.353 203.646 348.18 201.608 348.046 200.159C347.963 199.292 347.063 198.468 347.027 197.897C346.998 197.428 347.616 197.056 347.678 196.495C348.361 190.494 348.415 184.203 348.426 178.1C348.429 175.574 347.605 172.13 349.683 170.313C350.662 169.456 354.634 170.938 355.114 172.463C355.277 172.976 355.877 175.816 355.938 176.372C356.263 179.332 355.909 184.698 355.66 187.859C355.598 188.629 354.937 189.182 354.977 189.587C355.121 191.021 355.382 193.392 355.212 194.971C355.064 196.351 353.358 197.691 354.738 199.227C356.245 199.184 357.495 195.242 358.218 194.035C360.263 190.602 363.624 187.95 365.55 184.365C366.673 182.277 366.283 183.458 367.118 182.515C367.436 182.158 367.833 180.065 368.133 179.375C368.35 178.873 369.094 178.638 369.297 178.009C369.485 177.428 369.224 176.643 369.546 176.091C369.795 175.664 376.495 170.887 377.416 170.324C377.777 170.103 377.813 169.442 378.272 169.29C379.107 169.012 380.451 169.207 381.185 169.713V169.72Z" fill="white"/>
<path d="M227.164 170.534C227.279 170.697 227.875 170.675 227.749 171.207C226.907 173.88 227.127 176.468 227.001 179.174C226.788 183.839 226.054 188.75 226.264 193.646C226.322 195.051 226.466 198.589 226.716 199.698C226.856 200.316 227.279 200.811 227.72 201.245C228.172 201.451 229.978 199.629 230.354 199.236C230.708 198.863 230.553 198.307 230.831 198.119C231.33 197.779 232.49 197.946 232.728 197.711C232.876 197.566 232.656 196.988 233.01 196.677C233.621 196.143 235.94 195.311 236.941 194.538C239.16 192.815 242.112 189.375 244.15 187.293C244.992 186.433 245.559 185.599 246.166 184.974C246.773 184.348 248.266 184.262 248.884 183.716C249.765 182.939 250.633 179.817 252.006 178.889L255.966 169.66C258.148 168.706 262.138 171.105 262.047 173.353C262.029 173.826 261.129 176.724 260.884 177.284C259.865 179.597 256.992 184.085 256.699 186.48C256.62 187.131 257.061 187.684 257.01 188.161C256.985 188.399 256.345 188.348 256.273 188.63C255.861 190.235 256.938 195.528 257.332 197.259C257.476 197.891 257.231 198.65 257.422 199.337C257.917 201.107 261.679 202.766 263.326 202.842C266.365 202.983 267.883 200.901 270.268 200.76C273.896 200.547 274.304 203.695 272.056 205.978C268.851 209.245 260.371 210.813 256.291 208.052C255.919 207.799 253.173 205.433 253.003 205.198C252.367 204.302 252.522 203.21 252.096 202.491C251.731 201.87 250.647 201.678 250.542 201.183C250.47 200.844 250.871 200.262 250.835 199.785C250.723 198.311 249.502 196.002 250.119 193.989L249.404 189.834C249.31 191.304 248.613 191.535 247.268 191.673L247.2 193.772C244.667 193.816 245.176 194.784 244.284 196.092C242.56 198.621 235.034 205.472 232.392 207.326C232.15 207.496 227.113 209.313 226.82 209.317C226.611 209.317 223.102 207.998 222.885 207.861C222.795 207.803 221.364 206.459 221.317 206.361C221.086 205.91 221.303 205.23 221.039 204.652C220.851 204.24 220.186 203.998 219.969 203.55C218.347 200.193 219.145 196.959 219.279 193.566C219.42 190.047 219.355 186.661 219.449 183.185C219.5 181.36 220.511 178.65 220.529 176.641C220.547 174.231 218.762 171.662 220.844 169.761C222.665 168.099 225.729 168.482 227.164 170.527V170.534Z" fill="white"/>
<path d="M485.845 168.391C486.149 168.731 487.002 168.904 487.06 169.41C486.312 171.473 486.135 175.184 483.067 174.924C481.571 174.798 480.967 173.085 480.422 172.901C479.627 172.63 478.897 173.107 478.297 173.049C477.831 173.002 477.437 172.55 476.884 172.536C475.956 172.51 468.042 175.354 466.962 175.958C466.232 176.366 463.377 178.986 463.023 179.607C462.492 180.528 462.38 182.534 462.933 183.444C462.991 183.538 464.422 184.962 464.512 185.027C467.923 187.542 474.387 188.142 478.214 189.844C478.676 190.05 478.64 190.744 479.009 190.809C481.571 191.253 484.411 191.784 486.89 192.825C487.732 193.179 492.18 196.886 492.382 197.41C492.505 197.721 492.227 198.194 492.328 198.585C492.458 199.087 492.931 199.405 492.989 200.138C493.112 201.681 492.176 201.645 491.714 202.516C491.132 203.611 490.518 205.642 489.502 206.447C488.808 206.997 487.862 206.928 487.067 207.264C485.766 207.81 485.462 207.994 483.934 208.464C480.23 209.605 478.322 210.249 473.943 210.4C470.373 210.527 467.601 210.191 464.194 209.743C460.946 209.316 455.446 210.191 452.653 207.553C451.778 206.729 450.788 203.109 451.095 202.025C451.385 201.006 453.99 199.517 455.002 199.372C455.399 199.314 457.806 199.972 458.236 200.16C459.457 200.695 459.562 201.493 460.194 202.021C460.631 202.386 461.423 201.562 461.191 203.52C469.04 204.406 477.191 203.268 484.642 200.669L484.27 199.419C482.901 199.033 480.4 196.724 479.327 196.413C476.805 195.679 474.467 196.583 472.089 195.267C470.113 194.176 467.956 193.013 465.853 192.182C464.891 191.802 463.62 191.932 462.629 191.43C457.3 188.738 454.322 179.864 457.824 174.754C458.304 174.053 458.994 173.844 459.316 173.349C459.616 172.89 459.612 171.965 459.778 171.827C459.992 171.65 460.74 171.817 461.133 171.571C462.145 170.942 463.222 169.565 464.32 168.962C468.111 166.877 476.975 164.774 481.213 165.258C483.732 165.544 484.386 166.743 485.853 168.387L485.845 168.391Z" fill="white"/>
<path d="M439.351 169.722C439.875 170.007 444.72 175.861 445.187 176.71C449.385 184.374 447.506 194.242 442.35 200.862C437.837 206.654 434.379 208.382 427.553 210.98C426.332 211.446 425.129 212.537 424.059 212.83C421.804 213.451 418.502 211.8 415.987 212.049C415.73 211.934 412.518 207.919 412.442 207.644C412.204 206.817 412.485 205.816 412.29 204.906C411.824 202.698 411.228 201.35 411.318 198.723C411.499 193.397 413.082 192.385 414.379 188.049C415.188 185.339 414.87 181.465 416.189 179.019C416.886 177.726 419.535 175.521 419.99 174.506C420.399 173.592 420.182 172.526 420.644 171.908C421.107 171.29 422.827 171.146 423.553 170.481C424.319 169.78 424.363 168.251 425.277 167.868C427.441 166.954 429.262 168.002 430.946 167.789C431.803 167.68 432.406 166.903 433.49 167.055C434.317 167.174 434.798 168.179 435.6 168.595C436.565 169.093 438.473 169.241 439.355 169.722H439.351ZM436.738 177.393C434.827 174.799 434.097 174.17 430.675 173.563C429.772 173.664 427.907 178.076 427.445 178.535C426.758 179.214 425.031 179.706 424.113 181.166C423.748 181.747 424.008 182.839 423.694 183.608C423.499 184.085 422.823 184.147 422.556 184.649C421.049 187.467 418.708 194.318 418.234 197.69C418.079 198.806 417.703 202.412 417.754 203.384C417.826 204.75 419.199 206.018 420.514 206.083C421.089 206.112 421.678 205.776 422.307 205.737C424.605 205.588 423.438 205.527 424.905 205.083C425.786 204.815 426.863 205.162 427.922 204.851C428.98 204.541 434.354 200.754 435.373 199.836C437.707 197.729 437.736 196.725 438.939 194.188C439.235 193.567 440.269 193.187 440.475 192.472C440.54 192.244 441.252 188.085 441.252 187.847C441.252 187.034 439.947 184.345 439.839 183.493C439.777 182.994 440.186 182.474 440.037 181.867C439.969 181.592 437.161 177.971 436.735 177.393H436.738Z" fill="white"/>
<path d="M284.2 208.164C283.969 207.882 281.454 202.079 281.291 201.494C279.976 196.811 281.707 191.633 281.215 187.477C281.114 186.617 280.482 185.83 280.496 185.32C280.525 184.337 281.71 179.976 281.894 178.054C282.664 169.902 282.91 161.349 282.288 153.157L283.011 147.82L283.448 147.445C285.081 147.221 287.329 146.068 288.637 147.531C288.832 147.748 290.585 150.465 290.61 150.65C290.769 151.857 289.862 154.502 289.848 156.045C289.833 157.472 290.534 158.773 290.494 159.607C290.408 161.436 288.8 164.435 289.161 166.87C289.923 171.998 288.782 181.663 288.424 187.485C288.185 191.351 287.065 194.715 287.781 198.607C288.109 200.403 289.118 202.419 291.213 202.393C291.875 202.386 292.189 201.729 292.745 201.559C295.181 200.822 297.338 199.806 299.448 198.144C301.559 196.482 300.774 194.798 304.2 194.556C308.54 194.249 308.406 198.545 305.967 201.049C303.087 204.009 300.702 204.93 297.212 206.748C296.413 207.163 295.929 208.027 295.199 208.348C294.147 208.814 289.768 209.736 288.626 209.718C287.578 209.7 284.85 208.959 284.196 208.16L284.2 208.164Z" fill="white"/>
<path d="M327.293 198.338C328.757 197.333 329.953 196.271 331.311 195.313C333.237 193.958 339.586 190.638 339.767 195.082C339.803 195.971 338.531 198.435 337.924 199.039C333.367 203.584 326.74 207.642 320.93 209.507C320.027 209.796 319.806 210.862 318.44 210.247C316.276 209.275 313.812 206.186 313.252 203.859C312.16 199.342 313.645 188.975 314.133 183.917C314.422 180.914 315.138 177.478 315.203 174.475C315.235 172.899 314.686 170.247 314.813 168.73C314.878 167.92 315.456 167.114 316.233 166.869C316.681 166.728 320.71 166.309 321.049 166.406C324.793 167.472 322.256 174.775 322.368 177.004C322.415 177.947 323.131 178.529 323.055 179.443C322.99 180.213 322.278 181.044 322.119 181.788C321.201 186.103 320.345 190.717 319.857 195.064C319.615 197.203 319.235 201.106 322.155 201.015C324.963 200.932 325.4 199.639 327.293 198.338Z" fill="white"/>
<path d="M97.0742 111.279C97.8114 112.193 98.6208 112.84 98.3461 114.299C90.2196 117.248 80.4237 115.315 73.9883 109.613C73.215 108.93 70.2737 106.039 70.5519 105.132C78.6604 101.089 91.4012 104.247 97.0742 111.279Z" fill="white"/>
<path d="M274.299 56.1729C275.044 56.6065 273.143 60.1296 272.688 60.8125C268.142 67.6635 258.306 72.4224 250.126 70.5868C253.219 60.8523 264.388 54.7204 274.296 56.1693L274.299 56.1729Z" fill="white"/>
<path d="M186.403 48.6781C191.643 53.5128 194.309 61.4911 193.366 68.5734C193.244 69.4912 192.127 73.2563 191.339 73.4479C189.771 73.8273 186.317 69.0215 185.583 67.7459C182.114 61.7405 180.918 53.6501 184.55 47.464C184.821 47.3989 186.111 48.4034 186.403 48.6744V48.6781Z" fill="white"/>
<path d="M180.026 90.1105L179.802 90.8548C174.776 94.7211 167.701 95.9461 161.504 94.7175C159.553 94.3309 154.837 92.264 153.37 90.9488C151.784 89.5287 154.624 88.2243 155.737 87.6714C163.773 83.6714 172.915 84.8747 180.03 90.1105H180.026Z" fill="white"/>
<path d="M207.38 62.4031C208.739 63.3606 211.178 66.5765 211.987 68.0833C215.337 74.3128 215.604 81.2794 213.255 87.9244C211.94 88.8531 207.044 82.4646 206.404 81.2541C204.189 77.059 203.293 70.0634 204.33 65.4419C204.721 63.6967 205.396 61.0083 207.38 62.4031Z" fill="white"/>
<path d="M130.755 84.7151C133.089 83.9635 140.157 89.875 141.663 91.7973C144.85 95.8515 146.997 101.843 146.083 106.937C144.695 107.946 138.046 102.883 136.84 101.684C134.491 99.3529 132.406 95.8226 131.416 92.6537C131.026 91.4034 129.421 85.1487 130.755 84.7187V84.7151Z" fill="white"/>
<path d="M132.333 122.631C132.438 123.358 132.134 123.838 131.769 124.416C131.52 124.81 128.871 127.448 128.365 127.878C122.92 132.528 113.261 135.097 106.678 131.466C106.512 130.873 108.492 128.601 109.019 128.04C114.84 121.869 124.34 120.095 132.333 122.628V122.631Z" fill="white"/>
<path d="M153.886 136.59C150.266 140.543 144.697 143.361 139.342 143.903C136.231 144.218 133.879 143.354 130.855 143.061C128.069 142.324 133.644 137.504 134.688 136.72C140.513 132.362 147.52 131.256 154.461 133.19C154.916 133.316 155.95 133.674 155.801 134.339C155.014 134.964 154.508 135.907 153.883 136.586L153.886 136.59Z" fill="white"/>
<path d="M227.017 84.31C226.522 83.9667 225.283 78.6044 225.196 77.636C224.708 72.1473 227.075 64.6097 230.826 60.5085C231.892 59.3414 233.796 57.3757 234.75 59.4101C237.887 66.0948 235.491 77.1843 230.259 82.3443C229.764 82.8321 227.549 84.6749 227.017 84.3063V84.31Z" fill="white"/>
<path d="M155.459 36.4458C155.781 35.3618 157.555 36.2796 158.18 36.6192C161.298 38.3103 165.241 43.3871 166.538 46.6897C168.2 50.921 168.569 55.8894 167.398 60.3122C166.722 60.8 164.312 59.1017 163.651 58.6067C161.074 56.6844 155.459 48.8939 155.459 45.8406C155.459 43.9183 155.073 37.743 155.459 36.4458Z" fill="white"/>
<path d="M148.835 71.4421C149.33 71.7204 150.323 73.1874 151.48 73.1296C152.181 74.1377 145.85 77.3717 144.99 77.6536C144.517 77.8053 141.64 78.4702 141.163 78.5244C135.53 79.1748 128.661 77.8306 124.397 73.9896C124.231 73.1983 127.873 71.0302 128.621 70.6833C134.573 67.9299 143.126 68.2479 148.831 71.4458L148.835 71.4421Z" fill="white"/>
<path d="M232.413 110.71C232.604 112.502 230.845 113.959 229.605 115.014C224.261 119.574 216.481 121.731 209.634 119.935C209.114 119.798 206.487 118.804 206.404 118.461C212.225 109.941 222.902 107.772 232.409 110.71H232.413Z" fill="white"/>
<path d="M116.787 96.6059C113.094 95.9736 109.669 91.8507 108.035 88.5589C107.475 87.4315 107.164 86.7594 106.594 85.6718C105.495 83.5832 104.292 78.2463 104.599 75.9228C104.776 74.6003 105.524 73.3862 105.589 72.0348C107.262 72.0023 108.556 73.1911 109.752 74.192C116.035 79.4748 118.843 88.7034 116.783 96.6023L116.787 96.6059Z" fill="white"/>
<path d="M84.1484 81.1104C91.6932 82.0209 97.6914 88.5828 99.91 95.6109C100.391 97.1394 101.962 101.681 99.0826 101.161C92.3617 99.9506 85.8106 92.077 84.1701 85.6994C83.9316 84.7671 83.0355 81.4825 84.1521 81.114L84.1484 81.1104Z" fill="white"/>
<path d="M99.8133 124.069C99.5676 131.17 94.8196 138.61 88.5539 141.901C87.6867 142.357 83.0688 144.528 82.5015 143.546C82.3028 134.769 90.6678 124.127 99.8097 124.069H99.8133Z" fill="white"/>
<path d="M277.012 97.9056C275.267 96.4783 272.622 93.49 271.74 91.4376C271.169 90.1043 270.385 88.8721 272.329 88.6445C280.607 87.6761 290.385 94.0465 293.124 101.841C292.882 102.245 292.611 102.278 292.199 102.372C287.541 103.463 280.654 100.883 277.008 97.9056H277.012Z" fill="white"/>
<path d="M160.771 102.106C168.463 100.357 173.385 110.373 167.56 115.035C164.948 117.127 161.703 116.722 158.946 114.977C154.389 112.093 155.95 103.201 160.771 102.106Z" fill="white"/>
<path d="M160.256 143.687C162.204 142.14 166.326 142.111 168.433 143.434C175.284 147.745 169.839 158.903 162.063 155.947C159.898 155.123 157.242 151.517 157.369 149.237C157.391 148.861 158.077 146.61 158.269 146.213C158.37 146.003 160.129 143.788 160.256 143.687Z" fill="white"/>
<path d="M202.321 138.058C200.706 139.854 196.612 140.54 194.379 139.894C193.262 139.572 190.74 136.743 190.386 135.576C187.99 127.709 198.071 122.856 202.624 129.118C204.388 131.547 204.326 135.828 202.324 138.054L202.321 138.058Z" fill="white"/>
<path d="M267.286 99.2077C270.625 101.087 273.761 104.086 275.485 107.565C276.962 110.547 277.992 115.591 277.208 118.81C276.511 121.683 271.654 116.671 270.733 115.569C269.335 113.896 267.687 111.211 267.058 109.126C266.61 107.638 265.009 99.2728 267.286 99.2041V99.2077Z" fill="white"/>
<path d="M290.559 67.014C291.459 67.5415 289.522 71.0718 289.081 71.7836C285.937 76.8604 278.472 81.7349 272.326 80.3654C271.943 79.8343 272.875 77.8469 273.189 77.2109C276.091 71.3536 283.798 66.172 290.559 67.0103V67.014Z" fill="white"/>
<path d="M319.604 150.193C319.314 150.424 319.145 151.136 318.613 151.544C317.45 152.437 315.947 153.196 314.827 154.283C310.913 152.697 314.834 148.18 316.276 145.955C317.623 143.877 318.838 142.789 320.431 140.715C321.439 139.407 322.845 138.782 322.783 136.748C325.204 136.347 330.736 139.306 329.45 142.128C329.374 142.291 327.322 144.571 327.054 144.809C326.23 145.55 325.053 145.926 324.409 146.5C323.766 147.075 323.004 148.693 322.379 149.167C321.511 149.828 320.294 149.637 319.604 150.189V150.193Z" fill="white"/>
</svg>
