<svg width="74" height="71" viewBox="0 0 74 71" fill="none" xmlns="http://www.w3.org/2000/svg">
<path d="M38.4377 15.8211C37.9496 16.7787 37.8374 17.97 38.1289 19.1115C38.4187 20.2547 39.0862 21.2484 39.9728 21.8604C40.4609 20.9029 40.573 19.7115 40.2832 18.57C39.9918 17.4268 39.326 16.4331 38.4394 15.8211H38.4377Z" fill="white"/>
<path d="M33.6444 12.6029C33.1563 13.5605 33.0442 14.7518 33.3357 15.895C33.6254 17.0383 34.2929 18.0319 35.1795 18.6439C35.6676 17.6846 35.7797 16.495 35.4882 15.3518C35.1985 14.2086 34.531 13.2149 33.6444 12.6029Z" fill="white"/>
<path d="M27.2695 9.90043C26.9504 10.9268 27.0383 12.1198 27.5161 13.1977C27.9939 14.2756 28.8184 15.1455 29.7946 15.5993C30.1137 14.573 30.0257 13.3799 29.548 12.3021C29.0702 11.2242 28.2457 10.3543 27.2695 9.90043Z" fill="white"/>
<path d="M11.684 28.6561C12.8638 28.565 13.959 28.0802 14.7145 27.3135C13.8504 26.6723 12.693 26.3594 11.5132 26.4505C10.3334 26.5416 9.23818 27.0264 8.4827 27.7931C9.34684 28.4344 10.5059 28.7472 11.684 28.6561Z" fill="white"/>
<path d="M10.9492 23.0758C11.9082 23.7652 13.0604 24.0987 14.1332 23.999C13.8883 22.9521 13.2053 21.9687 12.2463 21.2811C11.2873 20.5917 10.1351 20.2582 9.06224 20.3579C9.30717 21.4048 9.9902 22.3882 10.9492 23.0758Z" fill="white"/>
<path d="M59.2994 24.2999C60.3584 23.7738 61.1898 22.9125 61.6003 21.9189C60.5568 21.649 59.3667 21.7934 58.3076 22.3194C57.2503 22.8455 56.4172 23.7068 56.0067 24.7004C57.0502 24.9703 58.2404 24.8259 59.2994 24.2999Z" fill="white"/>
<path d="M21.4706 20.8255C21.343 21.8931 21.6483 23.0483 22.3141 24.0231C22.9798 24.9978 23.9492 25.7027 24.991 25.9743C25.1186 24.9067 24.815 23.7515 24.1493 22.7767C23.4835 21.802 22.5141 21.0971 21.4706 20.8255Z" fill="white"/>
<path d="M15.9167 17.8978C15.5786 18.919 15.6476 20.1121 16.1064 21.1985C16.5652 22.285 17.3742 23.1687 18.3435 23.6397C18.6816 22.6185 18.6126 21.4255 18.1538 20.339C17.695 19.2525 16.886 18.3689 15.9184 17.8978H15.9167Z" fill="white"/>
<path d="M23.1299 17.3408C21.9467 17.3374 20.8152 17.7345 20.0011 18.4393C20.8117 19.1476 21.9415 19.5516 23.123 19.5551C24.3062 19.5585 25.4377 19.1614 26.2518 18.4565C25.4412 17.7483 24.3114 17.3443 23.1299 17.3408Z" fill="white"/>
<path d="M56.6691 27.5799C57.271 28.4722 58.2576 29.1495 59.3994 29.4555C60.543 29.7598 61.7383 29.6653 62.7059 29.1925C62.104 28.3003 61.1174 27.6229 59.9738 27.3169C58.832 27.0126 57.6367 27.1072 56.6673 27.5799H56.6691Z" fill="white"/>
<path d="M45.6612 24.458C46.5633 25.046 47.7379 25.2884 48.9091 25.125C50.0802 24.9634 51.1445 24.4116 51.8516 23.6002C50.9495 23.0122 49.7749 22.7698 48.6038 22.9331C47.4326 23.0947 46.3684 23.6466 45.6612 24.458Z" fill="white"/>
<path d="M42.9084 17.7998C42.6152 18.9413 42.7256 20.1327 43.212 21.092C44.0986 20.4817 44.7678 19.4897 45.061 18.3465C45.3525 17.205 45.2438 16.0137 44.7574 15.0544C43.8692 15.6647 43.2016 16.6566 42.9084 17.7981V17.7998Z" fill="white"/>
<path d="M53.0797 20.1877C52.9779 21.3619 53.2815 22.5188 53.918 23.3853C54.6941 22.6392 55.1909 21.551 55.2909 20.3768C55.391 19.2026 55.0874 18.0457 54.4527 17.1792C53.6765 17.9253 53.1797 19.0135 53.0797 20.1877Z" fill="white"/>
<path d="M47.2498 34.0593C48.3934 34.3636 49.5887 34.2691 50.5563 33.7963C49.9543 32.9041 48.9677 32.2268 47.8242 31.9207C46.6823 31.6147 45.487 31.711 44.5177 32.1838C45.1196 33.076 46.1062 33.7533 47.2481 34.0593H47.2498Z" fill="white"/>
<path d="M34.75 31.8743C34.75 32.7391 35.4537 33.4387 36.3196 33.4387C37.1855 33.4387 37.8892 32.7391 37.8892 31.8743C37.8892 31.0096 37.1855 30.3099 36.3196 30.3099C35.4537 30.3099 34.75 31.0096 34.75 31.8743Z" fill="white"/>
<path d="M27.197 26.533C27.197 27.3977 27.899 28.0974 28.7666 28.0974C29.6342 28.0974 30.3362 27.3977 30.3362 26.533C30.3362 25.6683 29.6342 24.9686 28.7666 24.9686C27.899 24.9686 27.197 25.6683 27.197 26.533Z" fill="white"/>
<path d="M38.3928 28.62C39.3605 29.0928 40.5575 29.1873 41.6993 28.883C42.8412 28.5788 43.8295 27.8997 44.4314 27.0075C43.4621 26.5347 42.2668 26.4402 41.125 26.7445C39.9814 27.0487 38.9948 27.7278 38.3928 28.62Z" fill="white"/>
<path d="M43.043 33.566C42.1754 33.566 41.4734 34.2656 41.4734 35.1304C41.4734 35.9951 42.1754 36.6948 43.043 36.6948C43.9105 36.6948 44.6125 35.9951 44.6125 35.1304C44.6125 34.2656 43.9088 33.566 43.043 33.566Z" fill="white"/>
<path d="M55.9998 31.601C55.3979 30.7088 54.4113 30.0314 53.2677 29.7254C52.1259 29.4211 50.9306 29.5157 49.9612 29.9884C50.5632 30.8807 51.5515 31.558 52.6933 31.864C53.8352 32.1683 55.0305 32.0738 55.9998 31.601Z" fill="white"/>
<path d="M30.5828 35.4175C30.5828 34.5527 29.8808 33.8531 29.0133 33.8531C28.1457 33.8531 27.4437 34.5527 27.4437 35.4175C27.4437 36.2822 28.1457 36.9819 29.0133 36.9819C29.8808 36.9819 30.5828 36.2822 30.5828 35.4175Z" fill="white"/>
<path d="M18.5884 29.3421C17.4604 29.6996 16.5049 30.4217 15.946 31.3397C16.9343 31.7677 18.1331 31.809 19.2611 31.4514C20.3874 31.0956 21.3447 30.3718 21.9035 29.4538C20.9152 29.0257 19.7165 28.9862 18.5884 29.3421Z" fill="white"/>
<path d="M42.1926 32.0583C43.6397 30.9391 44.9696 30.4509 45.6923 30.1724C47.8914 29.3283 48.9005 28.7318 51.4635 27.5318C52.3277 27.1278 53.6489 26.4952 55.2651 25.6631C54.9201 25.2437 54.5734 24.8242 54.2284 24.4064C53.5333 24.7778 52.4105 25.3726 51.0203 26.0826C43.5104 29.918 41.5027 30.0933 39.6813 32.1442C37.9444 34.0989 36.5628 36.7274 35.8211 40.3634C35.6159 39.1841 35.2088 37.5801 34.3568 35.8197C33.5375 34.1281 32.5767 32.8508 31.8023 31.9689C28.6355 28.5186 24.3476 27.2138 20.6203 26.0809C20.3512 25.9984 18.9851 25.9021 17.3983 25.1732C16.7136 24.8586 16.1858 24.5268 15.8442 24.2947C15.4734 24.6867 15.1008 25.0803 14.73 25.4723C15.0405 25.6923 15.5234 26.0121 16.1478 26.3319C18.052 27.3049 19.7372 27.4906 20.1718 27.5507C22.3606 27.8499 27.5523 29.5965 30.7536 33.2135C34.9501 37.9532 34.838 43.8051 34.8 44.5151C34.7276 45.9145 34.4533 49.8169 31.4056 52.8013C29.0805 55.0791 26.3087 55.6671 25.0669 55.9129C22.3382 56.4544 20.0701 56.0453 18.823 55.7238V56.9495C19.9942 57.1472 27.9094 58.3644 33.108 53.1778C34.4309 51.8575 35.2882 50.4134 35.8522 49.1241C36.3213 50.2604 37.1423 51.7595 38.5964 53.0849C42.9067 57.0149 48.9212 55.894 49.7594 55.7255C49.6956 55.3164 49.6335 54.9089 49.5697 54.4998C48.8522 54.6768 44.6746 55.631 41.056 53.0849C37.3648 50.4891 36.9837 46.1723 36.8371 44.5151C36.8371 44.5151 36.2523 38.4105 40.5575 33.5883C41.3285 32.7253 42.1909 32.0583 42.1909 32.0583H42.1926Z" fill="white"/>
<path d="M41.1301 24.8551C43.0188 24.207 43.7329 23.8151 45.0989 22.9314C45.5181 22.6598 45.9372 22.3572 46.3701 22.0048C47.7345 20.8943 48.5865 19.5172 48.5296 17.554L46.9894 17.597C47.0739 20.4989 43.9916 21.8845 40.4971 23.454C40.2815 23.5503 40.0625 23.6483 39.8451 23.748C37.677 21.0541 34.4102 19.5877 31.4177 18.2434C27.9232 16.6738 24.8409 15.2899 24.9254 12.3863L23.3852 12.3433C23.2713 16.2715 26.7917 17.8514 30.7829 19.6445C33.4961 20.8633 36.449 22.1888 38.398 24.4168C37.5356 24.8087 36.587 25.3038 35.5969 25.9296C34.1084 26.8717 32.9096 27.867 31.9765 28.7593C32.3542 29.1358 32.7337 29.514 33.1114 29.8905C37.2493 26.6293 39.6571 25.3606 41.1319 24.8551H41.1301Z" fill="white"/>
<path d="M24.4597 33.9167C25.5878 33.5591 26.5433 32.837 27.1022 31.919C26.1138 31.491 24.9151 31.4514 23.7871 31.8073C22.6607 32.1649 21.7035 32.8869 21.1446 33.8049C22.1329 34.233 23.3317 34.2725 24.458 33.9167H24.4597Z" fill="white"/>
<path d="M29.5135 21.0902C28.332 21.0593 27.1901 21.4289 26.3605 22.1148C27.1539 22.842 28.2733 23.2718 29.4548 23.3028C30.6363 23.3337 31.7781 22.9641 32.6078 22.2782C31.8144 21.551 30.695 21.1212 29.5135 21.0902Z" fill="white"/>
<path d="M45.6215 41.2746C45.2196 41.7456 44.3831 42.8407 43.1119 44.5564C42.5806 45.2732 42.0839 45.8749 41.6199 46.3649C41.0973 46.9116 40.6609 47.1849 40.3073 47.1849C40.0658 47.1849 39.8692 47.0543 39.7192 46.7912C39.6157 46.609 39.5657 46.3907 39.5657 46.138C39.5657 45.3283 39.9227 44.2211 40.6368 42.8149C41.3336 41.4585 42.2409 40.1382 43.3603 38.8523C43.8242 38.3194 44.1485 38.0512 44.3313 38.0512C44.39 38.0512 44.4469 38.0753 44.5055 38.1251C44.5866 38.1922 44.6263 38.2747 44.6263 38.3727C44.6263 38.5016 44.5193 38.6735 44.3055 38.8867C44.2572 38.9365 43.9088 39.3388 43.2619 40.0935C42.4323 41.0631 41.7027 42.1926 41.0731 43.4819C40.8058 44.0338 40.5954 44.5701 40.4436 45.0893C40.3366 45.4452 40.2832 45.7271 40.2832 45.9368C40.2832 46.0262 40.3039 46.1053 40.3435 46.1775C40.397 46.2617 40.4712 46.3047 40.5643 46.3047C40.7385 46.3047 40.9886 46.1208 41.3146 45.7512C42.1356 44.8125 43.4758 43.1295 45.3369 40.7004C45.8061 40.0866 46.3338 39.4454 46.9237 38.7784C47.0841 38.5961 47.2118 38.4655 47.3049 38.3847C47.3981 38.3005 47.5085 38.2575 47.6326 38.2575C47.7172 38.2575 47.7913 38.2901 47.8534 38.3572C47.9121 38.4156 47.9397 38.481 47.9397 38.5566C47.9397 38.6684 47.8396 38.8729 47.6378 39.1703C46.6202 40.6918 45.8216 42.1393 45.242 43.5129C44.6659 44.8744 44.3658 45.8835 44.3382 46.542C44.3296 46.7775 44.3141 46.9219 44.2917 46.9752C44.2554 47.056 44.1916 47.0955 44.0968 47.0955C43.9588 47.0955 43.8398 47.0354 43.7414 46.915C43.6707 46.8222 43.6345 46.7104 43.6345 46.5815C43.6345 46.2841 43.7121 45.8388 43.8691 45.2475C44.0605 44.5134 44.3727 43.7002 44.8057 42.8063C44.8333 42.7582 45.104 42.2459 45.6215 41.2711V41.2746Z" fill="white"/>
<path d="M40.3073 47.4222C40.0796 47.4222 39.7571 47.3328 39.5139 46.9099C39.3897 46.6898 39.3276 46.4319 39.3276 46.138C39.3276 45.2836 39.6864 44.161 40.4246 42.71C41.1266 41.3416 42.0546 39.9938 43.1809 38.6993C43.857 37.9223 44.1416 37.8174 44.3296 37.8174C44.4452 37.8174 44.5538 37.8604 44.6556 37.9463C44.7884 38.0563 44.8591 38.2059 44.8591 38.3727C44.8591 38.5721 44.7349 38.787 44.4693 39.0534C44.4417 39.0809 44.271 39.2735 43.4379 40.2465C42.6255 41.1972 41.8993 42.3198 41.2818 43.5851C41.0214 44.1231 40.8144 44.6509 40.6678 45.1546C40.5678 45.4899 40.516 45.7512 40.516 45.9368C40.516 45.9832 40.5247 46.0211 40.5436 46.0554C40.5488 46.0623 40.5522 46.0658 40.554 46.0675C40.5712 46.0675 40.7247 46.0572 41.1335 45.5947C41.9459 44.6664 43.2964 42.9713 45.1454 40.5577C45.6146 39.9439 46.151 39.2924 46.7426 38.6237C46.9117 38.4328 47.0445 38.2953 47.148 38.2076C47.2825 38.0873 47.4464 38.0237 47.6309 38.0237C47.781 38.0237 47.9172 38.0839 48.0242 38.199C48.1208 38.2953 48.1742 38.4225 48.1742 38.5601C48.1742 38.6787 48.1328 38.8592 47.8327 39.3044C46.8289 40.8052 46.0286 42.2545 45.4576 43.6074C44.8953 44.9363 44.5987 45.9282 44.5728 46.554C44.559 46.8995 44.5349 47.0061 44.509 47.068C44.4331 47.2399 44.283 47.3345 44.0968 47.3345C43.8881 47.3345 43.7018 47.2416 43.5586 47.068C43.4499 46.927 43.3982 46.7672 43.3982 46.5849C43.3982 46.2635 43.4775 45.8079 43.6397 45.1907C43.7846 44.6372 44.0002 44.032 44.2796 43.3856C43.9881 43.7724 43.6621 44.2108 43.3016 44.6973C42.7669 45.4177 42.2581 46.0331 41.7907 46.5265C41.2163 47.1282 40.7316 47.4204 40.3073 47.4204V47.4222ZM44.3279 38.2901C44.2882 38.2987 44.0881 38.3761 43.5379 39.0087C42.4358 40.274 41.5302 41.5909 40.8455 42.9249C40.1521 44.2899 39.8002 45.3712 39.8002 46.1397C39.8002 46.3511 39.8416 46.5316 39.9244 46.6778C40.0658 46.9219 40.2107 46.9511 40.3073 46.9511C40.5022 46.9511 40.8593 46.8222 41.4474 46.2033C41.9028 45.7237 42.3978 45.1237 42.9222 44.4171C44.1899 42.7066 45.0368 41.5978 45.4421 41.1233L46.8478 39.4729L45.8302 41.3863C45.3076 42.3696 45.054 42.8458 45.0144 42.918C44.5918 43.7914 44.283 44.5976 44.095 45.3111C43.945 45.8801 43.8691 46.3099 43.8691 46.5867C43.8691 46.664 43.8881 46.7242 43.9277 46.7775C43.9812 46.8428 44.0329 46.86 44.0743 46.8634C44.0812 46.8205 44.0916 46.7276 44.0985 46.5368C44.1261 45.844 44.4279 44.8263 45.0195 43.4252C45.6025 42.0447 46.4166 40.5697 47.4377 39.0431C47.6827 38.6787 47.6982 38.5686 47.6999 38.5583C47.6999 38.5532 47.6999 38.5446 47.6827 38.5274C47.6533 38.4964 47.6395 38.4964 47.6292 38.4964C47.5619 38.4964 47.5102 38.5171 47.4602 38.5618C47.3705 38.6391 47.2497 38.7629 47.0979 38.9365C46.515 39.5984 45.9837 40.2396 45.5215 40.8448C43.6638 43.267 42.3081 44.9707 41.4888 45.9076C41.1007 46.346 40.8161 46.542 40.5609 46.542C40.3867 46.542 40.2366 46.4577 40.14 46.3047L40.1331 46.2944C40.0728 46.1878 40.0434 46.0675 40.0434 45.9385C40.0434 45.7047 40.0986 45.4056 40.2142 45.024C40.3677 44.4962 40.585 43.9426 40.8575 43.3805C41.4923 42.0791 42.2391 40.9221 43.0791 39.9405C43.945 38.9297 44.0985 38.756 44.1364 38.7199C44.3848 38.4724 44.3883 38.3727 44.3883 38.3727C44.3883 38.352 44.3848 38.3331 44.3538 38.3073C44.3417 38.297 44.3331 38.2919 44.3279 38.2901Z" fill="white"/>
<path d="M46.9203 46.0176C47.041 45.9815 47.1307 45.9557 47.1876 45.9368C48.2191 45.6205 48.9573 45.4624 49.404 45.4624C49.7386 45.4624 49.906 45.5861 49.906 45.8354C49.906 45.9334 49.868 46.0193 49.7921 46.095C49.7162 46.1706 49.6317 46.2085 49.5386 46.2085C49.4937 46.2085 49.4282 46.2016 49.3437 46.1878C49.2729 46.1741 49.2143 46.1672 49.1695 46.1672C48.9056 46.1672 48.5606 46.2274 48.1311 46.3477C47.9742 46.3976 47.674 46.5213 47.2273 46.7207C46.9289 46.8548 46.6823 46.9202 46.4908 46.9202C46.3528 46.9202 46.239 46.8566 46.1493 46.7259C46.0648 46.6056 46.0217 46.4784 46.0217 46.346C46.0217 46.1809 46.1131 45.9042 46.2959 45.5122C46.853 44.3019 47.4515 43.2172 48.0897 42.2562C49.0039 40.8774 49.7145 39.8649 50.2182 39.2202C50.3561 39.0466 50.4941 38.8712 50.6338 38.6924C50.8529 38.3984 51.0426 38.2523 51.203 38.2523C51.2841 38.2523 51.3548 38.2833 51.4169 38.3452C51.4755 38.407 51.5031 38.4724 51.5031 38.5394C51.5031 38.6374 51.4273 38.7887 51.2755 38.9933C51.2444 39.0328 51.0581 39.2752 50.7201 39.7205C50.0871 40.5525 49.6145 41.1886 49.304 41.6287C48.9935 42.0688 48.6624 42.5777 48.3105 43.157C47.6188 44.2916 47.1549 45.2423 46.9186 46.0125L46.9203 46.0176Z" fill="white"/>
<path d="M46.4925 47.1608C46.3407 47.1608 46.1251 47.1093 45.9561 46.8652C45.844 46.707 45.7871 46.5334 45.7871 46.3511C45.7871 46.1466 45.8819 45.8509 46.0837 45.4177C46.6426 44.2039 47.2532 43.0968 47.8948 42.1307C48.809 40.7537 49.5282 39.7273 50.0336 39.0809C50.1733 38.9073 50.3113 38.732 50.4476 38.5549C50.7166 38.1939 50.9581 38.0237 51.203 38.0237C51.3462 38.0237 51.4773 38.0804 51.5842 38.1853C51.7153 38.3245 51.7412 38.4569 51.7412 38.5463C51.7412 38.701 51.6567 38.885 51.4669 39.1394C51.4255 39.1927 51.1478 39.5571 50.9098 39.8683C50.2803 40.6935 49.8059 41.333 49.4989 41.7697C49.1936 42.2029 48.8624 42.7117 48.514 43.2842C47.9586 44.1936 47.5499 44.9896 47.2946 45.6583C48.2657 45.3678 48.9556 45.2268 49.404 45.2268C50.0888 45.2268 50.1423 45.6927 50.1423 45.8354C50.1423 45.9953 50.0784 46.1431 49.9594 46.2617C49.8404 46.3804 49.6938 46.444 49.5386 46.444C49.4799 46.444 49.404 46.4371 49.3074 46.4216C49.2264 46.4062 49.1867 46.4044 49.1712 46.4044C48.9314 46.4044 48.6037 46.4629 48.1984 46.5763C48.0587 46.621 47.7637 46.7431 47.3274 46.9374C46.9945 47.0869 46.7219 47.1574 46.4943 47.1574L46.4925 47.1608ZM51.2047 38.4947C51.2047 38.4947 51.0788 38.4982 50.8253 38.8403C50.6839 39.0225 50.5441 39.1996 50.4062 39.3732C49.9094 40.0093 49.1971 41.0253 48.2898 42.392C47.662 43.3375 47.0635 44.4223 46.5132 45.6154C46.2925 46.0864 46.2597 46.2772 46.2597 46.3511C46.2597 46.4354 46.2873 46.5162 46.3442 46.5953C46.4011 46.6778 46.4494 46.6881 46.4925 46.6881C46.6495 46.6881 46.8651 46.6279 47.1324 46.5093C47.5912 46.303 47.8948 46.1775 48.0621 46.1259C48.5227 45.997 48.8831 45.9351 49.1712 45.9351C49.2316 45.9351 49.3023 45.9437 49.3885 45.9592C49.4765 45.9729 49.5213 45.9746 49.5386 45.9746C49.5593 45.9746 49.5869 45.9695 49.6248 45.93C49.6645 45.8904 49.6697 45.8612 49.6697 45.8371C49.6697 45.7752 49.6697 45.6996 49.404 45.6996C48.9832 45.6996 48.2622 45.856 47.2584 46.162C47.1997 46.1792 47.11 46.2067 46.9876 46.2428L46.565 46.3666L46.6943 45.9471C46.9358 45.1632 47.4119 44.1833 48.1104 43.0384C48.464 42.4573 48.8021 41.9399 49.1125 41.498C49.423 41.0579 49.9008 40.4133 50.5338 39.5829C50.8943 39.1102 51.0599 38.8918 51.0909 38.8523C51.253 38.6323 51.2668 38.5497 51.2686 38.5429C51.2686 38.5429 51.2651 38.5343 51.2444 38.5119C51.2254 38.4947 51.2134 38.4947 51.203 38.4947H51.2047Z" fill="white"/>
<path d="M55.4478 38.0718C55.5185 38.0718 55.5892 38.1096 55.6548 38.1853C55.7134 38.2523 55.7428 38.3245 55.7428 38.4053C55.7428 38.5171 55.6824 38.6684 55.5616 38.8592C55.503 38.952 55.284 39.2615 54.9062 39.7858C53.1297 42.2235 51.9878 44.4223 51.479 46.3838C51.4204 46.7001 51.3013 46.8583 51.1185 46.8583C51.0202 46.8583 50.9339 46.8119 50.8581 46.719C50.7873 46.6348 50.7511 46.5385 50.7511 46.4319C50.7511 46.2102 50.8581 45.7976 51.0719 45.1976C51.5635 43.8103 52.4414 42.1513 53.7092 40.2207C54.2266 39.4299 54.6492 38.8351 54.9752 38.4397C55.1839 38.1956 55.3426 38.0735 55.4495 38.0735L55.4478 38.0718Z" fill="white"/>
<path d="M51.1168 47.0938C50.9978 47.0938 50.8253 47.0543 50.6718 46.8669C50.5666 46.7431 50.5114 46.5953 50.5114 46.4319C50.5114 46.1792 50.6218 45.7512 50.846 45.1185C51.341 43.7209 52.2362 42.0293 53.5074 40.0918C54.0266 39.2958 54.4578 38.6907 54.7872 38.2901C55.0597 37.9721 55.2564 37.8363 55.4444 37.8363C55.5427 37.8363 55.6876 37.8707 55.829 38.0306C55.9256 38.1406 55.9756 38.2695 55.9756 38.407C55.9756 38.5669 55.9066 38.7509 55.7583 38.9864C55.6962 39.0861 55.4789 39.3938 55.0942 39.9268C53.3453 42.3267 52.2069 44.5168 51.7067 46.4371C51.6049 46.9803 51.3289 47.0955 51.1151 47.0955L51.1168 47.0938ZM55.4495 38.3142C55.415 38.3314 55.3236 38.3933 55.1529 38.5927C54.8372 38.9761 54.4164 39.5692 53.9058 40.3497C52.6553 42.2562 51.7757 43.9134 51.2927 45.2767C51.0374 45.9901 50.9857 46.2996 50.9857 46.4319C50.9857 46.4835 51.0012 46.5248 51.0374 46.5677C51.084 46.6245 51.1082 46.6245 51.1185 46.6245C51.1633 46.6245 51.2168 46.5093 51.2479 46.3443L51.2513 46.3271C51.7653 44.3466 52.9313 42.0997 54.7165 39.65C55.1805 39.007 55.3254 38.799 55.3633 38.7371C55.4978 38.5239 55.5082 38.4311 55.5082 38.407C55.5082 38.3916 55.5047 38.3709 55.4789 38.3417C55.4668 38.328 55.4582 38.3194 55.4513 38.3142H55.4495Z" fill="white"/>
<path d="M57.7711 45.5913C58.142 44.4928 58.5784 43.4458 59.0837 42.4487C59.4804 41.6699 60.0134 40.6935 60.6844 39.5193C61.1794 38.6529 61.5054 38.1337 61.6623 37.9652C61.8193 37.7968 61.9797 37.7125 62.1436 37.7125C62.2867 37.7125 62.3574 37.7744 62.3574 37.8999C62.3574 37.967 62.3264 38.0529 62.2643 38.1595C62.2057 38.2626 62.0211 38.5618 61.7089 39.0603C60.6792 40.733 59.9254 42.1066 59.4528 43.1828C59.0251 44.1472 58.656 45.0927 58.349 46.0176C58.2369 46.3511 58.1144 46.5987 57.9816 46.7586C57.785 46.9992 57.5866 47.1196 57.3865 47.1196C57.2037 47.1196 57.0881 46.9889 57.0381 46.7259C57.0157 46.6193 57.0053 46.4147 57.0053 46.1122C57.0053 45.0498 57.1105 43.8687 57.3192 42.5691C57.5072 41.431 57.697 40.5164 57.8884 39.827C57.4607 40.2981 56.819 41.2866 55.967 42.7891C55.2926 43.9805 54.7889 45.0927 54.4543 46.1242C54.3163 46.5506 54.2163 46.8153 54.1525 46.9185C54.0369 47.1144 53.8868 47.2124 53.704 47.2124C53.6281 47.2124 53.5643 47.1815 53.5108 47.1196C53.466 47.0663 53.4436 47.013 53.4436 46.9597C53.4436 46.7912 53.5885 46.3443 53.8782 45.6188C54.2525 44.6767 54.8752 43.4699 55.7462 42.0035C56.2637 41.1267 56.8794 40.1949 57.5935 39.2082C57.9333 38.7371 58.1851 38.4328 58.3507 38.2936C58.5025 38.1698 58.6456 38.1062 58.7784 38.1062C58.8371 38.1062 58.8871 38.1234 58.932 38.1595C58.994 38.2093 59.0251 38.2678 59.0251 38.34C59.0251 38.4294 59.0027 38.5291 58.9578 38.6409C58.7439 39.1875 58.5232 39.9457 58.2955 40.9153C57.9333 42.4762 57.7539 43.8034 57.7539 44.8985C57.7539 45.0498 57.7608 45.2818 57.7746 45.593L57.7711 45.5913Z" fill="white"/>
<path d="M53.7006 47.4479C53.5557 47.4479 53.4263 47.3878 53.3263 47.2726C53.2435 47.1729 53.2021 47.068 53.2021 46.9597C53.2021 46.8205 53.2538 46.5317 53.654 45.5311C54.0317 44.5822 54.6647 43.3547 55.5375 41.8831C56.0567 41.0047 56.6828 40.0574 57.3969 39.0706C57.7505 38.579 58.0109 38.2661 58.1937 38.1131C58.3886 37.9532 58.5835 37.8707 58.7733 37.8707C58.8837 37.8707 58.9889 37.9068 59.0751 37.9755C59.1924 38.0667 59.2579 38.1973 59.2579 38.34C59.2579 38.4586 59.2303 38.5893 59.1734 38.7285C58.9647 39.2615 58.7457 40.0162 58.5214 40.9703C58.2334 42.2166 58.0592 43.3203 58.004 44.2658C58.2679 43.604 58.5559 42.961 58.8681 42.3438C59.2666 41.5616 59.8064 40.5731 60.4739 39.4041C61.1518 38.2162 61.3743 37.924 61.483 37.8071C61.6848 37.5887 61.9055 37.477 62.1384 37.477C62.4126 37.477 62.5886 37.642 62.5886 37.8999C62.5886 38.0099 62.5472 38.1337 62.4627 38.2781C62.4057 38.3795 62.2212 38.6769 61.9038 39.1841C60.8844 40.8396 60.1307 42.2166 59.665 43.2773C59.2407 44.2332 58.8716 45.1804 58.568 46.0915C58.4455 46.4577 58.311 46.7242 58.1575 46.9081C57.916 47.2021 57.6539 47.3534 57.3796 47.3534C57.2037 47.3534 56.8932 47.2778 56.7983 46.7672C56.7725 46.6486 56.7604 46.4371 56.7604 46.1105C56.7604 45.0394 56.8673 43.8343 57.0778 42.5312C57.1778 41.9227 57.2796 41.3743 57.3813 40.8895C57.0415 41.4018 56.6345 42.0757 56.1653 42.9043C55.503 44.075 55.0011 45.1839 54.6716 46.1964C54.4785 46.793 54.3939 46.9631 54.3474 47.0405C54.149 47.3757 53.8834 47.4479 53.6971 47.4479H53.7006ZM53.6764 46.9511C53.6764 46.9511 53.6816 46.9597 53.6885 46.9683C53.6919 46.9735 53.6971 46.9769 53.6971 46.9769C53.7644 46.9769 53.8506 46.9563 53.9438 46.7981C53.9696 46.7569 54.0438 46.6056 54.2232 46.052C54.5612 45.0085 55.077 43.8722 55.7548 42.6722C56.6241 41.1405 57.2623 40.1571 57.7056 39.6672L58.3748 38.9297L58.1075 39.8889C57.9195 40.5663 57.7297 41.4808 57.5435 42.6069C57.3365 43.8859 57.2313 45.0652 57.2313 46.1105C57.2313 46.4663 57.2468 46.6142 57.2589 46.6761C57.2968 46.8824 57.3555 46.8823 57.3762 46.8823C57.44 46.8823 57.509 46.8583 57.5797 46.8101L57.528 45.5999C57.5142 45.2784 57.5073 45.048 57.5073 44.8968C57.5073 43.7896 57.6918 42.4315 58.0557 40.8602C58.2851 39.8838 58.5111 39.1085 58.7284 38.5532C58.7612 38.4724 58.7767 38.4036 58.7784 38.3469C58.7784 38.3469 58.7767 38.3469 58.775 38.3434C58.6939 38.3434 58.5956 38.3864 58.4887 38.4741C58.3869 38.5583 58.1799 38.7784 57.7746 39.344C57.0674 40.3204 56.4499 41.2556 55.9394 42.1221C55.0787 43.573 54.456 44.7781 54.0887 45.7047C53.7178 46.6331 53.673 46.8875 53.6695 46.9511H53.6764ZM62.1039 37.9515C62.0194 37.9652 61.9297 38.0237 61.8348 38.1251C61.7365 38.2317 61.4933 38.5807 60.8896 39.6362C60.2273 40.7984 59.6909 41.7817 59.2959 42.5553C58.8009 43.5352 58.3628 44.5822 57.9971 45.6652L57.6194 46.7878C57.6763 46.7431 57.7367 46.6846 57.7987 46.609C57.9143 46.4715 58.0247 46.248 58.1265 45.942C58.4352 45.0154 58.8095 44.0544 59.239 43.0865C59.7133 42.0086 60.4774 40.611 61.5088 38.9348C61.8193 38.4397 62.0056 38.1389 62.0608 38.0409C62.0832 38.0013 62.0987 37.9704 62.1073 37.948L62.1039 37.9515Z" fill="white"/>
<path d="M64.8653 38.8334C64.5359 38.8918 64.1426 39.0448 63.6873 39.2941C63.589 39.3474 63.5114 39.3749 63.4527 39.3749C63.3906 39.3749 63.3285 39.344 63.2647 39.2821C63.2026 39.215 63.1716 39.136 63.1716 39.0414C63.1716 38.9348 63.2268 38.842 63.3389 38.7612C63.6114 38.5652 63.9477 38.4002 64.3496 38.2678C64.836 38.1028 65.2914 38.0202 65.7157 38.0202C66.2555 38.0202 66.6954 38.2042 67.0334 38.5738C67.3422 38.9039 67.4957 39.3096 67.4957 39.7944C67.4957 40.5955 67.1697 41.5668 66.5177 42.71C65.8123 43.934 64.9533 45.0308 63.9408 46.0056C63.0836 46.8291 62.3471 47.2399 61.7313 47.2399C61.3708 47.2399 61.0776 47.0749 60.8551 46.7465C60.6861 46.4887 60.6016 46.1913 60.6016 45.8526C60.6016 45.0205 60.8913 44.0561 61.4709 42.9576C62.2471 41.486 63.3785 40.1107 64.8636 38.8351L64.8653 38.8334ZM65.2138 38.7595C65.2896 38.8489 65.3276 38.9262 65.3276 38.9933C65.3276 39.0517 65.2069 39.2133 64.9654 39.4798C63.984 40.5302 63.2561 41.4035 62.7835 42.1015C62.2919 42.8218 61.9176 43.5455 61.6589 44.2693C61.4761 44.7936 61.3846 45.2595 61.3846 45.6635C61.3846 45.8629 61.4243 46.0297 61.5054 46.1638C61.6072 46.3288 61.7572 46.4113 61.9538 46.4113C62.3695 46.4113 62.9249 46.064 63.62 45.3712C64.5031 44.491 65.2241 43.5765 65.7812 42.6292C66.4108 41.5531 66.7247 40.635 66.7247 39.8735C66.7247 39.5176 66.6091 39.2271 66.3763 39.0001C66.1986 38.8265 65.9537 38.7406 65.6467 38.7406L65.212 38.7612L65.2138 38.7595Z" fill="white"/>
<path d="M61.7331 47.4754C61.2898 47.4754 60.9293 47.2743 60.6602 46.8772C60.4636 46.5781 60.3653 46.2342 60.3653 45.8509C60.3653 44.9844 60.6671 43.9736 61.2622 42.8458C61.8779 41.6768 62.7231 40.5594 63.7822 39.509C63.6528 39.5778 63.5476 39.6087 63.4527 39.6087C63.3251 39.6087 63.2061 39.5537 63.0974 39.4454C62.9887 39.3302 62.9353 39.191 62.9353 39.038C62.9353 38.9108 62.9818 38.7251 63.2009 38.5669C63.4907 38.3589 63.8529 38.1818 64.2755 38.0409C64.7825 37.869 65.2689 37.7813 65.7157 37.7813C66.3228 37.7813 66.8247 37.9927 67.2094 38.4122C67.5561 38.7835 67.7337 39.2477 67.7337 39.7927C67.7337 40.6316 67.3939 41.651 66.7264 42.8252C66.0123 44.063 65.1327 45.189 64.1081 46.1741C63.1974 47.0491 62.4213 47.4737 61.7348 47.4737L61.7331 47.4754ZM65.074 38.9658L65.0206 39.0122C63.5648 40.2637 62.4402 41.627 61.6813 43.0659C61.1225 44.1249 60.8379 45.0618 60.8379 45.8509C60.8379 46.1448 60.9086 46.3941 61.0535 46.6159C61.2311 46.8789 61.4485 47.0027 61.7331 47.0027C62.2833 47.0027 62.9715 46.609 63.7787 45.8337C64.7705 44.8796 65.6243 43.7879 66.3142 42.5897C66.942 41.4894 67.2594 40.5474 67.2594 39.7927C67.2594 39.3663 67.1283 39.0191 66.861 38.732C66.5643 38.4088 66.19 38.2523 65.7157 38.2523C65.3207 38.2523 64.886 38.3314 64.4255 38.4861C64.0478 38.6116 63.7287 38.7663 63.4769 38.9486C63.4079 38.9984 63.4079 39.0277 63.4079 39.038C63.4079 39.0723 63.4165 39.0947 63.4372 39.117C63.4458 39.1256 63.4527 39.1308 63.4579 39.1342C63.4717 39.1308 63.5079 39.1205 63.5717 39.0844C64.0253 38.8368 64.429 38.6769 64.7722 38.6082L64.717 38.5446L65.2793 38.5188L65.6657 38.4517L65.6036 38.505H65.6432C66.0141 38.505 66.3142 38.6133 66.5384 38.83C66.8161 39.1033 66.9576 39.454 66.9576 39.8735C66.9576 40.6729 66.6298 41.639 65.9813 42.7478C65.4156 43.7088 64.6756 44.6475 63.7822 45.538C63.0336 46.2841 62.4333 46.6485 61.9487 46.6485C61.6692 46.6485 61.445 46.5248 61.3001 46.291C61.1966 46.1173 61.1432 45.9093 61.1432 45.6669C61.1432 45.2371 61.2398 44.742 61.4312 44.1954C61.6968 43.4527 62.0832 42.7049 62.5834 41.9725C63.0612 41.2677 63.8028 40.3754 64.7877 39.3216C64.9654 39.1239 65.0413 39.0225 65.074 38.9761C65.074 38.9761 65.0706 38.9709 65.0689 38.9675L65.074 38.9658ZM65.5639 38.9795C65.5639 38.9795 65.5639 38.9881 65.5639 38.9933C65.5639 39.1136 65.5001 39.2408 65.1413 39.6379C64.1702 40.6763 63.4441 41.5496 62.9801 42.2338C62.5023 42.9352 62.1332 43.6469 61.8831 44.3484C61.7106 44.8435 61.6227 45.287 61.6227 45.6635C61.6227 45.8199 61.652 45.9471 61.7089 46.0417C61.7658 46.1345 61.84 46.1741 61.9538 46.1741C62.1936 46.1741 62.6472 46.0056 63.4527 45.2028C64.3168 44.3415 65.0326 43.4338 65.5777 42.5089C66.1831 41.474 66.4884 40.5869 66.4884 39.8735C66.4884 39.5812 66.397 39.3508 66.2107 39.1669C66.0779 39.038 65.8951 38.9744 65.6519 38.9744L65.5622 38.9778L65.5639 38.9795Z" fill="white"/>
<path d="M67.8251 44.0028C68.0666 44.0028 68.1856 44.1008 68.1856 44.2968C68.1856 44.4429 68.0735 44.5546 67.851 44.6303C67.4664 44.7678 67.2749 45.0154 67.2749 45.3712C67.2749 45.6566 67.387 45.8784 67.6095 46.0383C67.801 46.1723 68.0442 46.2377 68.3391 46.2377C68.9273 46.2377 69.443 46.0658 69.8846 45.7237C70.1605 45.5053 70.2985 45.2303 70.2985 44.8968C70.2985 44.6922 70.2589 44.5082 70.1778 44.3432C70.0933 44.1747 69.9639 43.9616 69.7897 43.702C69.5224 43.3014 69.2964 42.937 69.1136 42.6086C68.9083 42.2441 68.8048 41.8866 68.8048 41.5341C68.8048 40.7021 69.2171 39.9233 70.0433 39.1996C70.4814 38.8214 70.9626 38.5154 71.4887 38.2781C71.9268 38.0873 72.3476 37.991 72.7529 37.991C73.0168 37.991 73.2393 38.0598 73.4222 38.1973C73.6447 38.3623 73.7568 38.5858 73.7568 38.8712C73.7568 39.3165 73.5153 39.7961 73.0341 40.3118C72.5787 40.7966 72.0475 41.192 71.4404 41.4998C71.1368 41.651 70.9074 41.7267 70.7504 41.7267C70.6469 41.7267 70.5573 41.6837 70.4762 41.5995C70.4227 41.541 70.3951 41.4774 70.3951 41.4052C70.3951 41.2402 70.5417 41.1078 70.8367 41.0047C71.3765 40.8138 71.8543 40.5439 72.2683 40.1967C72.803 39.7514 73.072 39.3629 73.072 39.0294C73.072 38.9004 73.0186 38.7956 72.9116 38.7165C72.8271 38.6546 72.7271 38.6237 72.6098 38.6237C72.301 38.6237 71.9164 38.7423 71.4524 38.9778C70.828 39.2941 70.3365 39.6998 69.9794 40.1984C69.6672 40.6299 69.5103 41.0493 69.5103 41.4585C69.5103 41.7559 69.5931 42.0636 69.7587 42.38C69.8966 42.6327 70.0726 42.9198 70.2882 43.2412C70.4934 43.549 70.6676 43.8326 70.8108 44.0956C70.9764 44.4068 71.0592 44.6991 71.0592 44.969C71.0592 45.4933 70.7573 45.9592 70.1554 46.3632C69.6414 46.7018 69.0618 46.8703 68.415 46.8703C67.7682 46.8703 67.2766 46.695 66.9162 46.3425C66.6436 46.0761 66.5074 45.7684 66.5074 45.4211C66.5074 45.0343 66.6367 44.7094 66.8955 44.4463C67.0524 44.2865 67.237 44.1661 67.4508 44.0853C67.5975 44.0269 67.7216 43.9994 67.8182 43.9994L67.8251 44.0028Z" fill="white"/>
<path d="M68.4202 47.1076C67.7216 47.1076 67.1611 46.9081 66.7557 46.5127C66.4367 46.1999 66.2762 45.8337 66.2762 45.4228C66.2762 44.9741 66.4298 44.5908 66.7316 44.283C66.911 44.0991 67.1266 43.9598 67.3732 43.867C67.5474 43.7982 67.6958 43.7656 67.8251 43.7656C68.265 43.7656 68.4236 44.0389 68.4236 44.2951C68.4236 44.4721 68.3374 44.7128 67.9286 44.8521C67.5612 44.9844 67.5129 45.1976 67.5129 45.3695C67.5129 45.5793 67.5888 45.7288 67.7492 45.8457C67.8976 45.9489 68.0959 46.0022 68.3409 46.0022C68.8807 46.0022 69.3395 45.8509 69.7414 45.538C69.9587 45.3678 70.0657 45.1563 70.0657 44.8968C70.0657 44.7283 70.0329 44.577 69.9691 44.4463C69.8898 44.2882 69.7638 44.0802 69.5965 43.8343C69.3257 43.4303 69.0946 43.0573 68.91 42.7221C68.6858 42.3249 68.572 41.9244 68.572 41.5341C68.572 40.635 69.0153 39.7909 69.8897 39.0225C70.3434 38.6305 70.8505 38.3073 71.3955 38.0632C71.8629 37.8586 72.32 37.7555 72.7581 37.7555C73.072 37.7555 73.3463 37.8415 73.5705 38.0099C73.8499 38.2162 74 38.5154 74 38.8712C74 39.3749 73.7361 39.9147 73.2135 40.4734C72.7409 40.9771 72.1838 41.3932 71.5542 41.7112C71.2075 41.8831 70.9557 41.9639 70.7573 41.9639C70.59 41.9639 70.4365 41.8952 70.3106 41.7628C70.2157 41.6596 70.1657 41.5376 70.1657 41.4069C70.1657 41.1319 70.3675 40.9221 70.766 40.7846C71.2748 40.6041 71.7336 40.3462 72.1251 40.0196C72.7185 39.5262 72.8444 39.2099 72.8444 39.0328C72.8444 38.9881 72.8323 38.9486 72.7788 38.9073C72.7357 38.8764 72.6857 38.8609 72.6201 38.8609C72.3511 38.8609 71.9975 38.9709 71.5697 39.1893C70.9816 39.4867 70.5159 39.8717 70.183 40.3376C69.9018 40.7279 69.7587 41.1044 69.7587 41.4619C69.7587 41.7198 69.8328 41.9931 69.9794 42.2734C70.1123 42.5158 70.2865 42.7994 70.4952 43.1123C70.7039 43.4252 70.8832 43.7192 71.0281 43.9839C71.2127 44.3312 71.3041 44.6612 71.3041 44.9707C71.3041 45.5758 70.9643 46.1105 70.2968 46.5609C69.7449 46.9236 69.1153 47.1076 68.4236 47.1076H68.4202ZM67.8251 44.2383C67.7786 44.2383 67.6923 44.2504 67.544 44.3088C67.3577 44.3776 67.2042 44.4773 67.0714 44.6148C66.8558 44.8349 66.7506 45.0996 66.7506 45.4245C66.7506 45.7082 66.861 45.954 67.0886 46.1775C67.406 46.4869 67.8424 46.6365 68.4219 46.6365C69.0015 46.6365 69.5603 46.4784 70.0312 46.1689C70.5676 45.8096 70.828 45.4159 70.828 44.9707C70.828 44.7403 70.7539 44.4824 70.6073 44.2074C70.471 43.9564 70.2985 43.6762 70.0967 43.3736C69.8794 43.0487 69.6983 42.753 69.5569 42.4951C69.3723 42.1427 69.2809 41.7972 69.2809 41.4619C69.2809 41.0047 69.4534 40.5336 69.7949 40.0626C70.1726 39.5365 70.6952 39.1016 71.3524 38.7698C71.8543 38.5154 72.2683 38.3899 72.6167 38.3899C72.784 38.3899 72.9323 38.4363 73.0582 38.5291C73.2273 38.6546 73.3152 38.8282 73.3152 39.0328C73.3152 39.4437 73.0255 39.8855 72.427 40.3806C71.9923 40.7433 71.4869 41.0287 70.9229 41.2281C70.6901 41.3089 70.6383 41.3846 70.6383 41.4069C70.6383 41.4121 70.6383 41.4224 70.6556 41.4396C70.6987 41.4843 70.7297 41.4912 70.7556 41.4912C70.8229 41.4912 70.9867 41.4654 71.3403 41.29C71.9181 40.9978 72.4321 40.6144 72.8668 40.152C73.3032 39.6844 73.5257 39.2529 73.5257 38.8712C73.5257 38.6615 73.4498 38.5068 73.2859 38.3864C73.141 38.2781 72.9703 38.2265 72.7581 38.2265C72.3873 38.2265 71.994 38.3159 71.5887 38.493C71.0885 38.7182 70.6211 39.0139 70.2037 39.3766C69.4361 40.0505 69.0463 40.776 69.0463 41.5341C69.0463 41.8436 69.1395 42.1651 69.324 42.4934C69.5034 42.8166 69.7276 43.1793 69.9898 43.5713C70.1674 43.8326 70.302 44.0578 70.3934 44.2366C70.49 44.4343 70.5383 44.6561 70.5383 44.8968C70.5383 45.3042 70.3692 45.6446 70.0329 45.9093C69.55 46.2841 68.9808 46.4732 68.3409 46.4732C67.9976 46.4732 67.7078 46.3924 67.4767 46.2308C67.1904 46.0262 67.0403 45.7288 67.0403 45.3712C67.0403 45.0515 67.168 44.6269 67.7717 44.4085C67.8959 44.3673 67.9493 44.3209 67.9493 44.2968C67.9493 44.2727 67.9459 44.2607 67.9442 44.2572C67.9442 44.2572 67.92 44.24 67.8251 44.24V44.2383Z" fill="white"/>
<path d="M66.8817 49.7842C61.4278 61.3041 49.5921 69.3015 35.9022 69.3015C17.0533 69.3015 1.71792 54.1371 1.71792 35.4983C1.71792 16.8595 17.0516 1.69678 35.9022 1.69678C54.7527 1.69678 70.0605 16.8354 70.0864 35.4519H71.8026C71.7957 30.6761 70.8471 26.0431 68.9808 21.6799C67.1732 17.4526 64.5842 13.6568 61.2864 10.3956C57.9902 7.1361 54.1508 4.57632 49.875 2.78843C45.4491 0.938644 40.7472 0 35.9022 0C31.0571 0 26.3536 0.938644 21.9277 2.79015C17.6518 4.57804 13.8124 7.13782 10.5162 10.3973C7.2201 13.6568 4.63115 17.4543 2.82181 21.6816C0.948652 26.0585 0 30.7071 0 35.5C0 40.2929 0.948652 44.9415 2.82181 49.3184C4.62942 53.5457 7.21838 57.3415 10.5162 60.6027C13.8124 63.8622 17.6518 66.422 21.9277 68.2099C26.3536 70.0614 31.0554 71 35.9022 71C40.7489 71 45.4508 70.0614 49.8767 68.2099C54.1525 66.422 57.992 63.8622 61.2881 60.6027C64.4635 57.4636 66.9783 53.8259 68.7756 49.786H66.8817V49.7842Z" fill="white"/>
</svg>
